<svg xmlns="http://www.w3.org/2000/svg" width="67.271" height="35.098" viewBox="0 0 67.271 35.098">
    <path d="m67.023 7.83-.085-.438C66.017 2.815 62.246 0 57.048 0H10.255C5.053 0 1.25 2.845.329 7.426l-.085.438A18.511 18.511 0 0 0 0 11.071v12.816A24.291 24.291 0 0 0 .159 26.6v.026l.008.046C.783 31.95 4.554 35.1 10.255 35.1h33.826a.546.546 0 0 0 .536-.556V13.781a.546.546 0 0 0-.536-.556h-1.952a.546.546 0 0 0-.536.556v18.194H11.01c-5.065 0-7.971-3.207-7.975-7.974V11.042c0-4.809 2.906-7.906 7.971-7.906h45.287c5.065 0 7.938 3.064 7.938 7.873v12.955c0 4.766-2.881 7.99-7.946 7.99l-1.035.013h-1.814a.546.546 0 0 0-.536.556v2a.546.546 0 0 0 .536.556H54.796c.183 0 .365 0 .548-.008h1.7c5.7 0 9.436-3.165 10.048-8.433l.008-.046v-.026a23.163 23.163 0 0 0 .159-2.718v-12.81a19.326 19.326 0 0 0-.236-3.208zM27.994 22.7c0 2.1 1.266 3.527 3.153 3.527h.844a.55.55 0 0 0 .54-.561v-1.758a.584.584 0 0 0-.154-.4.507.507 0 0 0-.381-.16h-.974V9.326a.546.546 0 0 0-.536-.556H28.53a.546.546 0 0 0-.536.556zm6.8-7.78a.546.546 0 0 1 .536-.556h1.952a.546.546 0 0 1 .536.556v8.441h.95a.508.508 0 0 1 .382.16.547.547 0 0 1 .114.177.673.673 0 0 1 .041.215v1.757a.546.546 0 0 1-.536.556h-.816c-1.887 0-3.157-1.412-3.157-3.51zm-9.117-5.357a.193.193 0 0 0 .017-.043c0-.008 0-.016.008-.024a.375.375 0 0 0 .02-.114 1.445 1.445 0 0 0-.012-.181.712.712 0 0 0-.077-.181l-.006-.011a.2.2 0 0 0-.031-.044l-.037-.036-.036-.036-.035-.025-.035-.025-.021-.011a.278.278 0 0 0-.056-.027 1.036 1.036 0 0 0-.183-.038h-2.231a.47.47 0 0 0-.077 0l-.028.006a.516.516 0 0 0-.277.154l-6.854 6.123a2.231 2.231 0 0 0-.158 2.891l6.948 8.041a.117.117 0 0 0 .02.022l.012.012.024.025a.572.572 0 0 0 .146.1h.014l.014.006a.525.525 0 0 0 .183.038h2.301a.416.416 0 0 0 .162-.034.595.595 0 0 0 .065-.03.671.671 0 0 0 .1-.067.285.285 0 0 1 .026-.023.264.264 0 0 0 .026-.023.635.635 0 0 0 .093-.139.223.223 0 0 0 .014-.046v-.008a.593.593 0 0 0 .029-.143v-.051a.587.587 0 0 0-.114-.333L18.25 16.5l7.321-6.773a.516.516 0 0 0 .106-.164zm11.6 2.284h-1.949a.55.55 0 0 1-.5-.362.585.585 0 0 1-.036-.19V9.322a.541.541 0 0 1 .536-.548h1.952a.556.556 0 0 1 .536.552v1.968a.55.55 0 0 1-.045.215.531.531 0 0 1-.495.338zM13.64 9.305a.546.546 0 0 0-.536-.556h-1.952a.568.568 0 0 0-.187.038l-.049.025a.514.514 0 0 0-.11.076l-.02.019-.02.019a.511.511 0 0 0-.1.148s0 .008-.008.013a.554.554 0 0 0-.045.219v16.322a.57.57 0 0 0 .045.219.533.533 0 0 0 .491.341H13.1a.546.546 0 0 0 .536-.556V9.305zm42.888 11.253-.024.1a4.723 4.723 0 0 1-4.967 3.835h-4.915a.546.546 0 0 1-.536-.556v-1.992a.224.224 0 0 1 .009-.053.347.347 0 0 0 .007-.035c0-.014 0-.028.006-.042a.354.354 0 0 1 .018-.084.6.6 0 0 1 .1-.152.076.076 0 0 0 .01-.015.069.069 0 0 1 .01-.015.044.044 0 0 1 .012-.008.038.038 0 0 0 .012-.008.637.637 0 0 1 .15-.1.329.329 0 0 1 .086-.019l.044-.006a.21.21 0 0 0 .033-.008.145.145 0 0 1 .044-.009h4.521c1.8 0 2.711-.847 2.711-2.516v-.059c0-1.631-.913-2.478-2.711-2.478h-4.522a.516.516 0 0 1-.211-.046.537.537 0 0 1-.284-.3.571.571 0 0 1-.045-.219v-1.987a.568.568 0 0 1 .158-.4.525.525 0 0 1 .377-.164h4.85a4.761 4.761 0 0 1 5.113 4.332 10.8 10.8 0 0 1-.036 2.891z" style="fill:#86b0ff;fill-rule:evenodd"/>
</svg>
