<svg xmlns="http://www.w3.org/2000/svg" width="46" height="24" viewBox="0 0 46 24">
    <path d="m45.831 5.354-.058-.3C45.143 1.925 42.564 0 39.009 0h-32C3.455 0 .855 1.945.225 5.078l-.058.3A12.658 12.658 0 0 0 0 7.571v8.764a16.611 16.611 0 0 0 .109 1.858v.018l.006.032c.419 3.605 3 5.758 6.9 5.758h23.13a.373.373 0 0 0 .366-.38V9.424a.373.373 0 0 0-.366-.38h-1.337a.373.373 0 0 0-.366.38v12.441H7.529a5.062 5.062 0 0 1-5.453-5.452V7.551c0-3.288 1.987-5.406 5.45-5.406h30.967c3.463 0 5.428 2.1 5.428 5.383v8.859c0 3.259-1.97 5.464-5.434 5.464l-.708.009h-1.244a.373.373 0 0 0-.366.38v1.366a.373.373 0 0 0 .366.38h.929c.125 0 .25 0 .374-.006h1.166c3.9 0 6.452-2.164 6.871-5.767l.006-.032v-.018A15.839 15.839 0 0 0 46 16.308v-8.76a13.215 13.215 0 0 0-.169-2.194zM19.143 15.522a2.176 2.176 0 0 0 2.157 2.412h.577a.376.376 0 0 0 .369-.383v-1.2a.4.4 0 0 0-.106-.271.346.346 0 0 0-.261-.11h-.666V6.377A.373.373 0 0 0 20.847 6h-1.338a.373.373 0 0 0-.366.38zm4.651-5.32a.373.373 0 0 1 .366-.38h1.335a.373.373 0 0 1 .366.38v5.772h.649a.347.347 0 0 1 .261.11.374.374 0 0 1 .078.121.46.46 0 0 1 .028.147v1.2a.373.373 0 0 1-.366.38h-.558a2.168 2.168 0 0 1-2.159-2.4zm-6.236-3.663a.132.132 0 0 0 .011-.03l.005-.016a.256.256 0 0 0 .014-.078.988.988 0 0 0-.008-.124.487.487 0 0 0-.053-.124V6.16a.137.137 0 0 0-.021-.03l-.025-.024-.025-.024-.024-.017-.024-.017-.014-.008a.19.19 0 0 0-.039-.018.709.709 0 0 0-.125-.026H15.7a.322.322 0 0 0-.053 0L15.63 6a.353.353 0 0 0-.189.105l-4.687 4.184a1.526 1.526 0 0 0-.108 1.977l4.751 5.5a.08.08 0 0 0 .014.015l.009.008.017.017a.391.391 0 0 0 .1.069h.016a.359.359 0 0 0 .125.026h1.573a.284.284 0 0 0 .111-.023.783.783 0 0 0 .044-.02.459.459 0 0 0 .067-.046l.018-.016.018-.016a.434.434 0 0 0 .064-.1.152.152 0 0 0 .01-.032v-.006a.405.405 0 0 0 .02-.1v-.035a.4.4 0 0 0-.078-.228L12.48 11.28l5.006-4.631a.353.353 0 0 0 .072-.11zM25.489 8.1h-1.332a.376.376 0 0 1-.344-.248.4.4 0 0 1-.025-.13V6.375A.37.37 0 0 1 24.154 6h1.335a.38.38 0 0 1 .366.378v1.345a.376.376 0 0 1-.031.147.363.363 0 0 1-.335.23zM9.327 6.363a.373.373 0 0 0-.366-.38H7.626a.388.388 0 0 0-.128.026l-.033.017a.352.352 0 0 0-.075.052l-.014.013-.014.009a.35.35 0 0 0-.067.1s0 .006-.006.009a.379.379 0 0 0-.031.15v11.165a.39.39 0 0 0 .031.15.364.364 0 0 0 .336.233h1.336a.373.373 0 0 0 .366-.38V6.363zm29.327 7.695-.017.069a3.23 3.23 0 0 1-3.4 2.623H31.88a.373.373 0 0 1-.366-.38v-1.364a.153.153 0 0 1 .006-.036.237.237 0 0 0 .005-.024v-.029a.242.242 0 0 1 .012-.058.413.413 0 0 1 .067-.1.052.052 0 0 0 .007-.01.047.047 0 0 1 .007-.01l.008-.006a.026.026 0 0 0 .008-.006.435.435 0 0 1 .1-.069.225.225 0 0 1 .059-.013h.03l.022-.006a.1.1 0 0 1 .03-.006h3.091c1.229 0 1.854-.579 1.854-1.72v-.04c0-1.115-.624-1.695-1.854-1.695h-3.083a.353.353 0 0 1-.144-.032.368.368 0 0 1-.194-.2.39.39 0 0 1-.031-.15V9.427a.388.388 0 0 1 .108-.271.359.359 0 0 1 .258-.112h3.32a3.256 3.256 0 0 1 3.5 2.963 7.383 7.383 0 0 1-.025 1.977z" style="fill:#131205;fill-rule:evenodd"/>
</svg>
